# xmcd
#
# Track frame offsets:
#	150
#	19999
#	37703
#	56007
#	69935
#	84575
#	105375
#	120879
#	135415
#	140175
#	155567
#	174167
#	194447
#	212495
#	233327
#	255447
#	271039
#	286151
#
# Disc length: 3904 seconds
# Revision: 0
# Processed by: cddbd v1.5.2PL0 Copyright (c) Steve Scherf et al.
# Submitted via: dBpowerAMP V12.0
#
DISCID=e20f3e12
DTITLE=Chris Golden - CenterStage
DYEAR=2007
DGENRE=Country
TTITLE0=Keep the Faith
TTITLE1=Love Won't Let Me
TTITLE2=Terminal of Life
TTITLE3=I Can Give You Love Like That
TTITLE4=Isn't It Always Love
TTITLE5=Walk These Hills
TTITLE6=You Oughta Know Love
TTITLE7=The Best I Can
TTITLE8=Reprise
TTITLE9=Opinion on Love
TTITLE10=Columbus Stockdale Blues
TTITLE11=Something That Moves Me
TTITLE12=I Believe in Angels
TTITLE13=Three Verses
TTITLE14=Home
TTITLE15=Sixteen Tons
TTITLE16=Bekah Boogie
TTITLE17=DATA
EXTD=
EXTT0=
EXTT1=
EXTT2=
EXTT3=
EXTT4=
EXTT5=
EXTT6=
EXTT7=
EXTT8=
EXTT9=
EXTT10=
EXTT11=
EXTT12=
EXTT13=
EXTT14=
EXTT15=
EXTT16=
EXTT17=
PLAYORDER=
